<svg
  xmlns="http://www.w3.org/2000/svg"
  xmlns:xlink="http://www.w3.org/1999/xlink"
  aria-hidden="true"
  role="img"
  class="iconify iconify--logos"
  viewBox="0 0 96 96"
>
    <title>Flamingo Head</title>
    <path fill="#fcbeac" d="M60.81,22.68A13.87,13.87,0,0,0,47.67,11.8a16.8,16.8,0,0,0-13.44,5.6c-3.71,4-8,10.19-7.11,17,.82,6.57,7.24,16.36,9.18,19.21a14.83,14.83,0,0,1,1.56,2.78,12.74,12.74,0,0,1,0,10.18A20.34,20.34,0,0,1,34,72l-.27.3a13.3,13.3,0,0,1-3.78,3.19c2.5,1.29,5.34,1.28,8.65,0a.5.5,0,0,1,.69.47c0,2.8-1.88,6.41-3,8.29C40,82.76,50.26,78,50.58,70.63c.27-6.48-1.63-9.79-5.09-15.8-1.51-2.63-3.22-5.6-5.15-9.54-2.4-4.87-3-9-1.7-12.43A9.26,9.26,0,0,1,43,27.93q-.45-.49-.87-1c.33.31.67.63,1,.93l.74.65a19.93,19.93,0,0,0,5.59,3.54,9.37,9.37,0,0,0,4.18.66,8.84,8.84,0,0,0,3.53-1.14s0-.07,0-.11C56.07,28.52,57.3,25.56,60.81,22.68Zm-8.64-4.26A5.89,5.89,0,0,0,49,17.11a7.41,7.41,0,0,0,0,1.63,3.3,3.3,0,0,0,.59,1.62,1.51,1.51,0,0,0,.66.5,9.4,9.4,0,0,0,.88.34,8.72,8.72,0,0,0,1.83.44,8.7,8.7,0,0,1-1.9-.2c-.31-.06-.63-.14-.93-.23a2,2,0,0,1-.91-.51,3.84,3.84,0,0,1-1-1.8,8.52,8.52,0,0,1-.3-2,.47.47,0,0,1-.23-.45.5.5,0,0,1,.53-.46h.06a10.15,10.15,0,0,1,2.25.66,5.45,5.45,0,0,1,1.92,1.37,4.75,4.75,0,0,1,1.06,2.05,7.85,7.85,0,0,1,.17,2.26A5.52,5.52,0,0,0,52.17,18.42ZM68,38.8a12.3,12.3,0,0,0-.88-3.38,13,13,0,0,0-3.76-4.92,12.52,12.52,0,0,1,2.81,5.24,11.23,11.23,0,0,1,.29,2.15c-1.39-3.06-3.45-3.79-5.3-4.46a9.44,9.44,0,0,1-2.11-.94l0,0a4.57,4.57,0,0,1-.61-.51,4.41,4.41,0,0,1-.32-.75l0-.05c-.91-2.55.18-5.06,3.33-7.67C68.32,28.05,70.48,33.06,68,38.8Z"/>
</svg>