<svg
  xmlns="http://www.w3.org/2000/svg"
  xmlns:xlink="http://www.w3.org/1999/xlink"
  aria-hidden="true"
  role="img"
  class="iconify iconify--logos"
  preserveAspectRatio="xMidYMid meet"
  width="512px" height="512px"
  viewBox="0 0 512 512"
>
    <title>Flamingo Head</title>
    <path fill="#fcbeac" d="M355.994,65.735c8.077.32,15.372-8.974,18.282-13.239-7.224-14.112-22.788-22.2-31.554-25.808-2.244,8.021-2.829,17.35,1.685,21.98C349.111,53.045,352.894,59.1,355.994,65.735Z"/>
    <path fill="#fcbeac" d="M328.846,225.368a26.785,26.785,0,0,0,5.754-7.562c-5.957-10.236-21.944-21.945-61.673-28.62-24.27-4.074-48.649.994-72.6,15.058C238.478,236.967,294.7,254.984,328.846,225.368Z"/>
    <path fill="#fcbeac" d="M377.889,64.123c-4.282,4.8-10.478,10.02-17.919,11.324,2.759,7.64,4.833,15.358,6.535,21.7.332,1.237.687,2.562,1.042,3.849C375.833,87.392,379.293,75.044,377.889,64.123Z"/>
    <path fill="#fcbeac" d="M284.9,292.339c39.881-.915,67.75-11.98,82.832-32.887,10.97-15.207,11.635-31.708,2.093-51.932-8.686-18.411-24.18-36.459-39.163-53.914-11.25-13.1-21.875-25.48-28.451-36.853-14.731-25.476-11.572-58.629.865-69.094,5.34-4.492,11.875-4.375,17.483.311,5.237,4.377,10.184,6.065,14.478,4.98-6.44-9.47-3.763-22.975-1.614-30.136-5.812-3.23-17.9-6.7-31.334,8.456-24.256,27.366-27.71,62.525-9.24,94.049,7.268,12.4,16.379,23.533,25.191,34.3C338.554,184.663,357.962,208.4,346.1,240.3A37.625,37.625,0,0,1,335.4,256.922c-16.816,14.587-36.731,21.781-60.507,21.781a133.956,133.956,0,0,1-17.806-1.241c-24.015-3.22-52.247-12.714-87.939-29.651C149.771,259,138.2,274.728,134.8,294.638a71.787,71.787,0,0,0-.887,15.89,106.8,106.8,0,0,1,11.43-13.232c16.228-15.808,34.145-21.55,51.813-16.61a341.716,341.716,0,0,0,48.42,9.53l-9.464,97.412a5,5,0,0,0,.017,1.121l11.982,93.238h-7.023a5,5,0,0,0,0,10h48.293a5,5,0,0,0,0-10H278.194L266.12,388.033l9.3-95.676C278.559,292.411,281.725,292.413,284.9,292.339ZM322.913,24.15a5.581,5.581,0,1,1-5.579,5.581A5.587,5.587,0,0,1,322.913,24.15Zm-54.8,457.837h-9.918L246.12,388.033l9.4-96.76c3.236.292,6.537.534,9.883.719l-9.291,95.636a5,5,0,0,0,.017,1.121Z"/>
    <path fill="#fcbeac" d="M163.556,233.992C210.73,257.268,246.658,268.7,275.2,268.7c21.531,0,38.854-6.5,53.647-19.333a27.208,27.208,0,0,0,6.238-8.566c.274-.6.541-1.2.789-1.792a26.536,26.536,0,0,0,1.886-8.406,29.868,29.868,0,0,1-2.361,2.318c-13.418,11.639-30.166,17.556-49.259,17.556a108.065,108.065,0,0,1-24.742-3.03c-23.971-5.643-49.222-19.283-69.863-37.624A166.958,166.958,0,0,0,163.556,233.992Z"/>
</svg>